<svg width="106" height="40" viewBox="0 0 106 40" fill="none" xmlns="http://www.w3.org/2000/svg">
<path d="M48.0332 21.9981C48.0332 21.8126 48.1812 21.6426 48.3852 21.6426H50.5943C50.778 21.6426 50.9463 21.8126 50.9463 21.9981V32.0031H55.3644C55.5685 32.0031 55.7164 32.1731 55.7164 32.3586V34.4039C55.7164 34.5893 55.5685 34.7594 55.3644 34.7594H48.3852C48.1812 34.7594 48.0332 34.5893 48.0332 34.4039V21.9981Z" fill="white"/>
<path d="M71.6582 21.9981C71.6582 21.8126 71.8062 21.6426 72.0102 21.6426H76.3365C78.5252 21.6426 80.3261 23.1624 80.3261 25.1304C80.3261 26.573 79.0455 27.6239 78.1731 28.0928C79.1578 28.5049 80.6577 29.422 80.6577 31.1479C80.6577 33.2447 78.8211 34.7645 76.612 34.7645H72.0102C71.8062 34.7645 71.6582 34.5945 71.6582 34.409V21.9981ZM75.9998 26.9645C76.7038 26.9645 77.3007 26.3669 77.3007 25.6147C77.3007 24.8625 76.7089 24.3422 75.9998 24.3422H74.5509V26.9645H75.9998ZM76.2447 32.0804C76.9691 32.0804 77.5813 31.4827 77.5813 30.7099C77.5813 29.9629 76.7855 29.3962 76.061 29.3962H74.556V32.0752H76.2447V32.0804Z" fill="white"/>
<path d="M82.6446 32.9819L83.517 31.426C83.6649 31.1838 84.0169 31.2199 84.1496 31.3126C84.2261 31.3487 85.5577 32.343 86.7872 32.343C87.532 32.343 88.0677 31.8742 88.0677 31.2199C88.0677 30.4317 87.4198 29.834 86.1546 29.3292C84.5577 28.6903 82.5527 27.4384 82.5527 25.187C82.5527 23.3323 83.9812 21.457 86.8382 21.457C88.7667 21.457 90.2513 22.4514 90.8074 22.8635C91.0318 22.9923 90.991 23.3323 90.9196 23.4611L89.9707 24.9037C89.8431 25.1097 89.5064 25.2798 89.3381 25.1458C89.1697 25.0531 87.8177 24.0227 86.6851 24.0227C86.0168 24.0227 85.5169 24.4709 85.5169 24.9758C85.5169 25.6713 86.0729 26.1916 87.5422 26.7944C88.9911 27.3766 91.292 28.5203 91.292 31.0653C91.292 32.9973 89.6391 34.9447 86.9147 34.9447C84.5016 34.9447 83.1649 33.935 82.7415 33.5022C82.5476 33.3167 82.4966 33.2446 82.6446 32.9819Z" fill="white"/>
<path d="M63.1786 27.1708H63.1582L60.6533 32.8121L59.9849 34.3113C59.8931 34.538 59.689 34.7595 59.3166 34.7595H57.2759C56.9953 34.7595 56.8473 34.5174 56.9596 34.2701L62.7705 21.6582C62.8266 21.5449 62.9541 21.4521 63.0868 21.4521H63.2705C63.398 21.4521 63.5306 21.5449 63.5868 21.6582L69.3926 34.2753C69.5048 34.5174 69.3568 34.7647 69.0762 34.7647H67.0151C66.6835 34.7647 66.5305 34.6514 66.3672 34.2959L63.1786 27.1708Z" fill="white"/>
<path d="M54.2763 10.7675H54.2559L51.7509 16.4088L51.0826 17.908C50.9907 18.1347 50.7867 18.3562 50.4142 18.3562H48.3735C48.093 18.3562 47.945 18.1141 48.0572 17.8668L53.8681 5.2549C53.9243 5.14156 54.0518 5.04883 54.1844 5.04883H54.3681C54.4957 5.04883 54.6283 5.14156 54.6844 5.2549L60.4953 17.8668C60.6076 18.1089 60.4596 18.3562 60.179 18.3562H58.1179C57.7863 18.3562 57.6332 18.2429 57.47 17.8874L54.2763 10.7675Z" fill="white"/>
<path d="M63.0166 7.99624H60.3637C60.1597 7.99624 60.0117 7.82622 60.0117 7.64076V5.6006C60.0117 5.41513 60.1597 5.24512 60.3637 5.24512H68.6031C68.8071 5.24512 68.9551 5.41513 68.9551 5.6006V7.64076C68.9551 7.82622 68.8071 7.99624 68.6031 7.99624H65.9502V18.0013C65.9502 18.1867 65.7818 18.3567 65.5981 18.3567H63.3687C63.185 18.3567 63.0166 18.1867 63.0166 18.0013V7.99624Z" fill="white"/>
<path d="M70.8145 5.59474C70.8145 5.40927 70.9828 5.23926 71.1665 5.23926H73.3755C73.5796 5.23926 73.7276 5.40927 73.7276 5.59474V10.319H79.0334V5.59474C79.0334 5.40927 79.1813 5.23926 79.3854 5.23926H81.5945C81.7781 5.23926 81.9465 5.40927 81.9465 5.59474V18.0005C81.9465 18.186 81.7781 18.356 81.5945 18.356H79.3854C79.1813 18.356 79.0334 18.186 79.0334 18.0005V13.0702H73.7276V18.0005C73.7276 18.186 73.5796 18.356 73.3755 18.356H71.1665C70.9828 18.356 70.8145 18.186 70.8145 18.0005V5.59474Z" fill="white"/>
<path d="M85.1426 5.59474C85.1426 5.40927 85.2905 5.23926 85.4946 5.23926H93.1778C93.3819 5.23926 93.5299 5.40927 93.5299 5.59474V7.6349C93.5299 7.82037 93.3819 7.99038 93.1778 7.99038H88.0353V10.3139H92.2646C92.4483 10.3139 92.6167 10.4839 92.6167 10.6694V12.7095C92.6167 12.9156 92.4483 13.065 92.2646 13.065H88.0353V15.5946H93.1778C93.3819 15.5946 93.5299 15.7646 93.5299 15.9501V17.9954C93.5299 18.1809 93.3819 18.3509 93.1778 18.3509H85.4946C85.2905 18.3509 85.1426 18.1809 85.1426 17.9954V5.59474Z" fill="white"/>
<path d="M96.0098 5.59474C96.0098 5.40927 96.1577 5.23926 96.3618 5.23926H101.913C104.142 5.23926 105.958 7.05788 105.958 9.28866C105.958 11.0146 104.826 12.4004 103.213 13.0547L105.754 17.8151C105.882 18.0572 105.754 18.356 105.438 18.356H102.969C102.821 18.356 102.708 18.2633 102.673 18.186L100.203 13.2196H98.9229V18.0005C98.9229 18.186 98.7545 18.356 98.5708 18.356H96.3618C96.1577 18.356 96.0098 18.186 96.0098 18.0005V5.59474ZM101.673 10.8445C102.433 10.8445 103.081 10.1336 103.081 9.34533C103.081 8.55709 102.433 7.9234 101.673 7.9234H98.928V10.8445H101.673Z" fill="white"/>
<path d="M8.97399 32.8898L16.2389 6.36776L13.6574 0L0 16.1925L4.08651 37.6708L8.97399 32.8898Z" fill="url(#paint0_linear_10418_2623)"/>
<path d="M33.7948 24.1109L40.2792 26.2078L32.3357 6.99114L13.6582 0L16.2397 6.36776L33.7948 24.1109Z" fill="url(#paint1_linear_10418_2623)"/>
<path d="M33.7954 24.1113L8.97537 32.8902L4.08789 37.6712L25.7857 39.9998L40.2797 26.2082L33.7954 24.1113Z" fill="url(#paint2_linear_10418_2623)"/>
<path d="M17.6029 9.74169L16.2356 6.36719L8.9707 32.8892L11.5624 30.3493L17.6029 9.74169Z" fill="#EA4242"/>
<path d="M17.6075 9.74169L30.3568 23.0027L33.7954 24.1104L16.2402 6.36719L17.6075 9.74169Z" fill="url(#paint3_linear_10418_2623)"/>
<path d="M11.5624 30.3496L8.9707 32.8895L33.7907 24.1106L30.3522 23.0029L11.5624 30.3496Z" fill="#F35048"/>
<path d="M21.8649 20.2624L17.6049 9.74219L11.5645 30.3498L21.8649 20.2624Z" fill="url(#paint4_linear_10418_2623)"/>
<path d="M30.3508 23.0032L17.6016 9.74219L21.8615 20.2624L30.3508 23.0032Z" fill="url(#paint5_linear_10418_2623)"/>
<path d="M11.5645 30.3501L30.3542 23.0035L21.8649 20.2627L11.5645 30.3501Z" fill="url(#paint6_linear_10418_2623)"/>
<defs>
<linearGradient id="paint0_linear_10418_2623" x1="-37.5032" y1="50.2895" x2="22.1551" y2="10.6125" gradientUnits="userSpaceOnUse">
<stop stop-color="#828282"/>
<stop offset="0.5168" stop-color="#363636"/>
<stop offset="1"/>
</linearGradient>
<linearGradient id="paint1_linear_10418_2623" x1="-13.2077" y1="39.4252" x2="52.7514" y2="-2.95162" gradientUnits="userSpaceOnUse">
<stop offset="0.3656" stop-color="#828282"/>
<stop offset="0.5719" stop-color="#363636"/>
<stop offset="1"/>
</linearGradient>
<linearGradient id="paint2_linear_10418_2623" x1="-3.13002" y1="50.9798" x2="36.5094" y2="23.4335" gradientUnits="userSpaceOnUse">
<stop stop-color="#828282"/>
<stop offset="0.5168" stop-color="#363636"/>
<stop offset="1"/>
</linearGradient>
<linearGradient id="paint3_linear_10418_2623" x1="7.09672" y1="1.34593" x2="64.3257" y2="47.5485" gradientUnits="userSpaceOnUse">
<stop stop-color="#FF5858"/>
<stop offset="0.237" stop-color="#FD614F"/>
<stop offset="0.6294" stop-color="#F77B36"/>
<stop offset="0.9944" stop-color="#F09819"/>
</linearGradient>
<linearGradient id="paint4_linear_10418_2623" x1="-35.1751" y1="53.7917" x2="24.4831" y2="14.1147" gradientUnits="userSpaceOnUse">
<stop stop-color="#828282"/>
<stop offset="0.5168" stop-color="#363636"/>
<stop offset="1"/>
</linearGradient>
<linearGradient id="paint5_linear_10418_2623" x1="-12.6202" y1="40.3481" x2="53.339" y2="-2.02877" gradientUnits="userSpaceOnUse">
<stop offset="0.3656" stop-color="#828282"/>
<stop offset="0.5719" stop-color="#363636"/>
<stop offset="1"/>
</linearGradient>
<linearGradient id="paint6_linear_10418_2623" x1="-7.14812" y1="45.2014" x2="32.4913" y2="17.655" gradientUnits="userSpaceOnUse">
<stop stop-color="#828282"/>
<stop offset="0.5168" stop-color="#363636"/>
<stop offset="1"/>
</linearGradient>
</defs>
</svg>
